# xmcd
#
# Track frame offsets:
# 150
# 20169
# 49939
# 76012
# 95004
# 119962
# 153077
# 166952
# 187720
# 202270
# 223315
# 256802
# 283597
# 305095
#
# Disc length: 4265 seconds
#
#
# Revision: 0
# Processed by: cddbd v1.4PL0 Copyright (c) Steve Scherf et al.
# Submitted via: FreeRIP 2.50 
#
DISCID=cc10a70e
DTITLE=The Voodudes - Night of the living Dudes
DYEAR=1997
DGENRE=Blues
TTITLE0=The Crescent
TTITLE1=Marie Marie
TTITLE2=Fatty Brown Must Die
TTITLE3=Revenge of Fatty Brown
TTITLE4=Third World Stomp
TTITLE5=Funeral for a Jazz Man
TTITLE6=Emmanuelle
TTITLE7=Oh! Susannah
TTITLE8=Jury Duty
TTITLE9=John Henry
TTITLE10=Party When youre Gone
TTITLE11=Stroke it
TTITLE12=Gospel Train
TTITLE13=Last track not listed
EXTD=
EXTT0=
EXTT1=
EXTT2=
EXTT3=
EXTT4=
EXTT5=
EXTT6=
EXTT7=
EXTT8=
EXTT9=
EXTT10=
EXTT11=
EXTT12=
EXTT13=
PLAYORDER=
